<?xml version="1.0" encoding="UTF-8" standalone="no"?>
<!-- Generator: Adobe Illustrator 16.0.0, SVG Export Plug-In . SVG Version: 6.00 Build 0)  -->
<svg id="Layer_1" xmlns:rdf="http://www.w3.org/1999/02/22-rdf-syntax-ns#" xmlns="http://www.w3.org/2000/svg" enable-background="new 0 0 120 120" xml:space="preserve" height="120px" viewBox="0 0 120 120" width="120px" version="1.1" y="0px" x="0px" xmlns:cc="http://creativecommons.org/ns#" xmlns:dc="http://purl.org/dc/elements/1.1/"><metadata id="metadata17"><rdf:RDF><cc:Work rdf:about=""><dc:format>image/svg+xml</dc:format><dc:type rdf:resource="http://purl.org/dc/dcmitype/StillImage"/><dc:title/></cc:Work></rdf:RDF></metadata><line id="line7" y2="45.336" x2="120" x1="120" fill="none"/><line id="line9" y2="43.5" x2="114.04" y1="43.5" x1="91.418" fill="none"/><g id="g4145" fill="#1a1a1a"><g id="g3"><path id="path5" fill="#1a1a1a" d="m60 95.5c-19.575 0-35.5-15.926-35.5-35.5 0-19.575 15.925-35.5 35.5-35.5 13.62 0 25.467 7.714 31.418 19h22.627c-7.06-23.153-28.578-40-54.04-40-31.204 0-56.5 25.296-56.5 56.5 0 31.203 25.296 56.5 56.5 56.5 16.264 0 30.911-6.882 41.221-17.88l-15.331-14.365c-6.483 6.913-15.688 11.245-25.889 11.245z"/></g><polygon id="polygon11" points="120 21.832 119.99 68.842 74.827 55.811"/></g></svg>
